<svg width="24" height="21" viewBox="0 0 24 21" fill="none" xmlns="http://www.w3.org/2000/svg">
<path d="M12 0C5.37258 0 0 4.70101 0 10.5C0 16.299 5.37258 21 12 21C18.6274 21 24 16.299 24 10.5C24 4.70101 18.6274 0 12 0ZM7.6875 4.17077C7.93474 4.15802 8.15822 4.28733 8.32764 4.51684L9.96826 7.23924C10.141 7.56184 10.0428 7.90725 9.78516 8.13775L9.0337 8.79527C8.98732 8.85089 8.9568 8.91352 8.95606 8.9824C9.24424 9.95846 10.1184 10.8588 10.8897 11.478C11.6609 12.0971 12.4899 12.9354 13.5659 13.134C13.6989 13.1664 13.8619 13.1781 13.957 13.1007L14.8301 12.3226C15.1314 12.1228 15.5674 12.0259 15.8892 12.1893H15.9038L18.8642 13.7185C19.2988 13.9568 19.3438 14.4175 19.0327 14.6977L16.9937 16.4678C16.6925 16.738 16.2925 16.8288 15.9038 16.8292C14.1849 16.7842 12.5607 16.0459 11.2266 15.2873C9.0368 13.8934 7.02814 12.1645 5.7671 10.0757C5.28346 9.19987 4.71532 8.08232 4.76954 7.1047C4.77438 6.73692 4.8881 6.37662 5.1841 6.13956L7.22316 4.35538C7.382 4.23712 7.53914 4.17844 7.6875 4.17077Z" fill="white"/>
<path d="M12 0C5.37258 0 0 4.70101 0 10.5C0 16.299 5.37258 21 12 21C18.6274 21 24 16.299 24 10.5C24 4.70101 18.6274 0 12 0ZM7.6875 4.17077C7.93474 4.15802 8.15822 4.28733 8.32764 4.51684L9.96826 7.23924C10.141 7.56184 10.0428 7.90725 9.78516 8.13775L9.0337 8.79527C8.98732 8.85089 8.9568 8.91352 8.95606 8.9824C9.24424 9.95846 10.1184 10.8588 10.8897 11.478C11.6609 12.0971 12.4899 12.9354 13.5659 13.134C13.6989 13.1664 13.8619 13.1781 13.957 13.1007L14.8301 12.3226C15.1314 12.1228 15.5674 12.0259 15.8892 12.1893H15.9038L18.8642 13.7185C19.2988 13.9568 19.3438 14.4175 19.0327 14.6977L16.9937 16.4678C16.6925 16.738 16.2925 16.8288 15.9038 16.8292C14.1849 16.7842 12.5607 16.0459 11.2266 15.2873C9.0368 13.8934 7.02814 12.1645 5.7671 10.0757C5.28346 9.19987 4.71532 8.08232 4.76954 7.1047C4.77438 6.73692 4.8881 6.37662 5.1841 6.13956L7.22316 4.35538C7.382 4.23712 7.53914 4.17844 7.6875 4.17077Z" fill="white"/>
</svg>
